<svg width="1920" height="1080" viewBox="0 0 1920 1080" fill="none" xmlns="http://www.w3.org/2000/svg">
<g clip-path="url(#clip0_196_1992)">
<rect width="1920" height="1080" fill="white"/>
<rect x="960" width="960" height="1080" fill="#D9D9D9"/>
<path fill-rule="evenodd" clip-rule="evenodd" d="M282.576 700.288C368.549 697.923 456.705 709.326 522.154 765.123C592.517 825.111 656.737 913.831 639.642 1004.7C623.411 1090.98 515.308 1114.16 446.285 1168.41C391.473 1211.49 351.003 1272.01 282.576 1285.35C198.93 1301.67 99.1909 1308.6 39.5328 1247.74C-19.9349 1187.08 4.51321 1089.6 7.45746 1004.7C10.242 924.407 1.95516 837.556 55.8249 777.95C111.514 716.331 199.552 702.571 282.576 700.288Z" fill="#C4C4C4" fill-opacity="0.4"/>
<path opacity="0.7" fill-rule="evenodd" clip-rule="evenodd" d="M1760.34 703.525C1841.14 717.563 1878.95 803.469 1934.31 863.977C1985.38 919.804 2063.77 962.318 2066.27 1037.94C2068.8 1114.57 2005.02 1174.62 1946.19 1223.78C1893.4 1267.89 1828.22 1282.4 1760.34 1293.55C1671.8 1308.1 1571.42 1353 1501.42 1296.86C1429.6 1239.24 1439.53 1129.99 1441.68 1037.94C1443.76 948.814 1451.72 855.356 1513.22 790.816C1575.87 725.067 1670.86 687.979 1760.34 703.525Z" fill="white"/>
<path fill-rule="evenodd" clip-rule="evenodd" d="M100.456 -123.2C175.147 -137.788 254.202 -108.842 310.387 -62.6215C368.657 -14.6857 415.496 54.896 401.506 124.458C388.487 189.191 298.789 208.197 246.575 254.672C194.426 301.089 173.751 385.486 100.456 392.416C25.7006 399.485 -38.2649 341.092 -80.352 285.584C-115.697 238.968 -111.898 180.118 -102.713 124.458C-95.1014 78.3267 -64.8747 42.2837 -33.9953 4.64256C6.21386 -44.3713 33.9041 -110.201 100.456 -123.2Z" fill="#C4C4C4" fill-opacity="0.4"/>
<path fill-rule="evenodd" clip-rule="evenodd" d="M1725.83 -235.322C1811.77 -243.623 1888.4 -174.286 1936.84 -102.808C1978.07 -41.9553 1962.55 34.8005 1958.61 108.203C1955 175.469 1958.01 245.594 1915.35 297.724C1868.83 354.561 1799.27 391.621 1725.83 392.63C1651.53 393.65 1585.75 353.272 1531.03 303.003C1473.33 249.995 1411.78 186.429 1416.23 108.203C1420.57 31.8942 1500.82 -8.86104 1551.99 -65.6377C1608.34 -128.169 1642.04 -227.23 1725.83 -235.322Z" fill="white" fill-opacity="0.7"/>
</g>
<defs>
<clipPath id="clip0_196_1992">
<rect width="1920" height="1080" fill="white"/>
</clipPath>
</defs>
</svg>
