<svg width="19" height="20" viewBox="0 0 19 20" fill="none" xmlns="http://www.w3.org/2000/svg">
     <path d="M5.16977 7.89155C4.9379 7.64748 4.56196 7.64748 4.33009 7.89155C4.09821 8.13563 4.09821 8.53136 4.33009 8.77544L4.80509 9.27544C7.39798 12.0048 11.6019 12.0048 14.1948 9.27544L14.6698 8.77544C14.9016 8.53136 14.9016 8.13563 14.6698 7.89155C14.4379 7.64748 14.062 7.64748 13.8301 7.89155L13.3551 8.39155C11.2259 10.6328 7.77392 10.6328 5.64477 8.39155L5.16977 7.89155Z" fill="#FFFAFA"/>
     <path fill-rule="evenodd" clip-rule="evenodd" d="M9.49993 0.208496C7.18711 0.208496 5.27733 2.02393 4.98625 4.37516L4.46172 4.37516C3.67347 4.37514 3.01979 4.37511 2.50679 4.45057C1.96747 4.52989 1.48286 4.70503 1.11432 5.13847C0.745776 5.5719 0.633921 6.09824 0.618584 6.67122C0.603994 7.21626 0.6762 7.90013 0.763272 8.72478L1.00702 11.0339C1.18913 12.7593 1.33215 14.1143 1.57507 15.1675C1.82407 16.247 2.1944 17.0895 2.88193 17.7372C3.57011 18.3856 4.41045 18.6796 5.46287 18.8207C6.49041 18.9585 7.79519 18.9585 9.45756 18.9585H9.54229C11.2047 18.9585 12.5095 18.9585 13.537 18.8207C14.5894 18.6796 15.4298 18.3856 16.1179 17.7372C16.8055 17.0895 17.1758 16.247 17.4248 15.1675C17.6677 14.1143 17.8107 12.7593 17.9928 11.034L18.2366 8.72477C18.3237 7.90013 18.3959 7.21625 18.3813 6.67122C18.3659 6.09824 18.2541 5.5719 17.8855 5.13847C17.517 4.70503 17.0324 4.52989 16.4931 4.45057C15.9801 4.37511 15.3264 4.37514 14.5381 4.37516L14.0136 4.37516C13.7226 2.02398 11.8127 0.208496 9.49993 0.208496ZM9.49993 1.4585C11.1555 1.4585 12.532 2.71735 12.8123 4.37516H6.18753C6.46785 2.7174 7.84433 1.4585 9.49993 1.4585ZM1.99916 5.97212C2.10264 5.85042 2.26684 5.748 2.67111 5.68854C3.09223 5.6266 3.66222 5.62516 4.50553 5.62516H14.4943C15.3376 5.62516 15.9076 5.6266 16.3287 5.68854C16.733 5.748 16.8972 5.85042 17.0007 5.97212C17.1042 6.09382 17.1828 6.27691 17.1942 6.70643C17.2062 7.15384 17.1446 7.75032 17.0515 8.63258L16.8173 10.8514C16.6295 12.6309 16.4937 13.9062 16.2708 14.8726C16.0519 15.8216 15.7656 16.3916 15.326 16.8058C14.887 17.2194 14.3146 17.4564 13.3869 17.5808C12.4431 17.7073 11.2139 17.7085 9.49993 17.7085C7.78595 17.7085 6.55675 17.7073 5.61292 17.5808C4.68528 17.4564 4.11289 17.2194 3.67389 16.8058C3.23424 16.3916 2.94794 15.8216 2.72905 14.8726C2.50616 13.9062 2.3704 12.6309 2.18256 10.8514L1.94835 8.63258C1.85522 7.75032 1.79364 7.15384 1.80561 6.70643C1.81711 6.27691 1.89568 6.09382 1.99916 5.97212Z" fill="#FFFAFA"/>
     </svg>
     