<svg width="20" height="20" viewBox="0 0 20 20" fill="none" xmlns="http://www.w3.org/2000/svg">
<path d="M3.98514 6.61537L4.10247 7.35614H4.10247L3.98514 6.61537ZM7.4487 3.15182L8.18947 3.26914V3.26914L7.4487 3.15182ZM15.7824 17.5376L15.3416 16.9308L15.7824 17.5376ZM16.7042 16.6158L16.0975 16.1749L16.7042 16.6158ZM3.29576 16.6158L3.90252 16.1749L3.29576 16.6158ZM4.21756 17.5376L4.6584 16.9308L4.21756 17.5376ZM4.21756 2.46243L3.77672 1.85567L4.21756 2.46243ZM3.29576 3.38423L2.689 2.94339L3.29576 3.38423ZM15.7824 2.46243L15.3416 3.0692L15.7824 2.46243ZM16.7042 3.38423L16.0975 3.82507L16.7042 3.38423ZM7.5 1.69078L7.47432 0.941219L7.5 1.69078ZM2.52411 6.66667L1.77455 6.64099L2.52411 6.66667ZM9.25 14.1667C9.25 14.5809 9.58579 14.9167 10 14.9167C10.4142 14.9167 10.75 14.5809 10.75 14.1667H9.25ZM6.13398 9.63871C5.84239 9.93291 5.84451 10.4078 6.13871 10.6994C6.4329 10.9909 6.90777 10.9888 7.19936 10.6946L6.13398 9.63871ZM7.83154 8.99136L8.36423 9.51932L7.83154 8.99136ZM12.1685 8.99136L11.6358 9.51932H11.6358L12.1685 8.99136ZM12.8006 10.6946C13.0922 10.9888 13.5671 10.9909 13.8613 10.6994C14.1555 10.4078 14.1576 9.93291 13.866 9.63871L12.8006 10.6946ZM9.79111 7.51326L9.69628 6.76928H9.69628L9.79111 7.51326ZM10.2089 7.51326L10.3037 6.76928H10.3037L10.2089 7.51326ZM10 7.5L10 6.75L10 7.5ZM4.10247 7.35614C6.20627 7.02293 7.85626 5.37295 8.18947 3.26914L6.70793 3.03449C6.47638 4.49646 5.32978 5.64305 3.86782 5.87461L4.10247 7.35614ZM1.75 9.16667V10.8333H3.25V9.16667H1.75ZM18.25 10.8333V9.16667H16.75V10.8333H18.25ZM10 19.0833C11.5457 19.0833 12.7652 19.0844 13.7331 18.9795C14.715 18.8731 15.5265 18.6506 16.2233 18.1443L15.3416 16.9308C14.9431 17.2203 14.4258 17.3957 13.5715 17.4882C12.7032 17.5823 11.5791 17.5833 10 17.5833V19.0833ZM16.75 10.8333C16.75 12.4124 16.749 13.5365 16.6549 14.4048C16.5623 15.2591 16.387 15.7765 16.0975 16.1749L17.311 17.0566C17.8173 16.3598 18.0398 15.5483 18.1462 14.5664C18.251 13.5985 18.25 12.379 18.25 10.8333H16.75ZM16.2233 18.1443C16.6407 17.8411 17.0077 17.474 17.311 17.0566L16.0975 16.1749C15.8867 16.465 15.6317 16.7201 15.3416 16.9308L16.2233 18.1443ZM1.75 10.8333C1.75 12.379 1.74897 13.5985 1.85383 14.5664C1.96022 15.5483 2.18275 16.3598 2.689 17.0566L3.90252 16.1749C3.61301 15.7765 3.43766 15.2591 3.34511 14.4048C3.25103 13.5365 3.25 12.4124 3.25 10.8333H1.75ZM10 17.5833C8.42091 17.5833 7.29683 17.5823 6.4285 17.4882C5.57421 17.3957 5.05688 17.2203 4.6584 16.9308L3.77672 18.1443C4.47352 18.6506 5.28502 18.8731 6.26693 18.9795C7.23481 19.0844 8.45432 19.0833 10 19.0833V17.5833ZM2.689 17.0566C2.99226 17.474 3.35932 17.8411 3.77672 18.1443L4.6584 16.9308C4.36834 16.7201 4.11326 16.465 3.90252 16.1749L2.689 17.0566ZM3.77672 1.85567C3.35932 2.15893 2.99226 2.52599 2.689 2.94339L3.90252 3.82507C4.11326 3.53502 4.36834 3.27994 4.6584 3.0692L3.77672 1.85567ZM10 2.41667C11.5791 2.41667 12.7032 2.4177 13.5715 2.51178C14.4258 2.60434 14.9431 2.77969 15.3416 3.0692L16.2233 1.85567C15.5265 1.34942 14.715 1.12689 13.7331 1.02051C12.7652 0.915642 11.5457 0.916672 10 0.916672V2.41667ZM18.25 9.16667C18.25 7.62099 18.251 6.40148 18.1462 5.4336C18.0398 4.45169 17.8173 3.64019 17.311 2.94339L16.0975 3.82507C16.387 4.22355 16.5623 4.74088 16.6549 5.59517C16.749 6.4635 16.75 7.58758 16.75 9.16667H18.25ZM15.3416 3.0692C15.6317 3.27994 15.8867 3.53502 16.0975 3.82507L17.311 2.94339C17.0077 2.526 16.6407 2.15893 16.2233 1.85567L15.3416 3.0692ZM10 0.916672C9.03005 0.916672 8.19352 0.916578 7.47432 0.941219L7.52568 2.44034C8.21372 2.41677 9.02174 2.41667 10 2.41667V0.916672ZM7.47432 0.941219C5.91157 0.99476 4.72962 1.16335 3.77672 1.85567L4.6584 3.0692C5.21318 2.66612 5.98145 2.49325 7.52568 2.44034L7.47432 0.941219ZM6.75 1.69077C6.74999 2.4764 6.74718 2.78673 6.70793 3.03449L8.18947 3.26914C8.25175 2.87589 8.24999 2.42143 8.25 1.69078L6.75 1.69077ZM3.25 9.16667C3.25 8.18842 3.25009 7.3804 3.27367 6.69235L1.77455 6.64099C1.74991 7.36019 1.75 8.19672 1.75 9.16667H3.25ZM3.27367 6.69235C3.32657 5.14812 3.49945 4.37985 3.90252 3.82507L2.689 2.94339C1.99668 3.89629 1.82809 5.07824 1.77455 6.64099L3.27367 6.69235ZM2.52411 7.41667C3.25476 7.41667 3.70922 7.41842 4.10247 7.35614L3.86782 5.87461C3.62005 5.91385 3.30973 5.91667 2.5241 5.91667L2.52411 7.41667ZM10.75 14.1667V8.16667H9.25V14.1667H10.75ZM7.19936 10.6946L8.36423 9.51932L7.29885 8.4634L6.13398 9.63871L7.19936 10.6946ZM11.6358 9.51932L12.8006 10.6946L13.866 9.63871L12.7012 8.4634L11.6358 9.51932ZM8.36423 9.51932C8.84113 9.03815 9.15499 8.72309 9.41701 8.51266C9.6672 8.31173 9.79639 8.26866 9.88594 8.25725L9.69628 6.76928C9.2197 6.83003 8.83359 7.05736 8.47777 7.34312C8.13378 7.61937 7.75091 8.00728 7.29885 8.4634L8.36423 9.51932ZM12.7012 8.4634C12.2491 8.00728 11.8662 7.61937 11.5222 7.34312C11.1664 7.05736 10.7803 6.83003 10.3037 6.76928L10.1141 8.25725C10.2036 8.26866 10.3328 8.31173 10.583 8.51266C10.845 8.72309 11.1589 9.03815 11.6358 9.51932L12.7012 8.4634ZM9.88594 8.25725C9.92382 8.25242 9.96191 8.25 10 8.25L10 6.75C9.89856 6.75 9.79712 6.75643 9.69628 6.76928L9.88594 8.25725ZM10 8.25C10.0381 8.25 10.0762 8.25242 10.1141 8.25725L10.3037 6.76928C10.2029 6.75643 10.1014 6.75 10 6.75L10 8.25ZM10.75 8.16667V7.5H9.25V8.16667H10.75Z" fill="#77878F"/>
</svg>
