<svg width="290" height="216" viewBox="0 0 290 216" fill="none" xmlns="http://www.w3.org/2000/svg">
<g filter="url(#filter0_dd_1217_6135)">
<rect x="41" y="21.0002" width="208" height="134" rx="24" fill="white"/>
<rect x="40.5" y="20.5002" width="209" height="135" rx="24.5" stroke="#D6DCE5"/>
<path d="M140.479 104.059H135.8V67.6559H148.203C151.346 67.6559 154.026 68.7037 156.219 70.7992C158.461 72.8947 159.582 75.4532 159.582 78.4746C159.582 81.5691 158.461 84.1276 156.219 86.1987C154.051 88.2699 151.37 89.2933 148.203 89.2933H140.479V104.059ZM140.479 72.1393V84.8342H148.3C150.152 84.8342 151.711 84.2007 152.93 82.958C154.172 81.7153 154.806 80.2046 154.806 78.499C154.806 76.8177 154.172 75.3313 152.93 74.0886C151.711 72.7972 150.176 72.1637 148.3 72.1637H140.479V72.1393Z" fill="#3C4043"/>
<path d="M171.813 78.3284C175.273 78.3284 178.002 79.2543 180 81.1062C181.998 82.958 182.997 85.4921 182.997 88.7085V104.059H178.538V100.599H178.343C176.418 103.45 173.835 104.863 170.619 104.863C167.866 104.863 165.575 104.059 163.723 102.427C161.872 100.794 160.946 98.7718 160.946 96.3351C160.946 93.7523 161.92 91.7055 163.87 90.1948C165.819 88.6597 168.426 87.9044 171.667 87.9044C174.445 87.9044 176.735 88.4161 178.514 89.4395V88.3673C178.514 86.7348 177.88 85.3703 176.589 84.225C175.297 83.0798 173.787 82.5194 172.057 82.5194C169.45 82.5194 167.378 83.6159 165.868 85.8332L161.75 83.2504C164.016 79.9609 167.378 78.3284 171.813 78.3284ZM165.77 96.4082C165.77 97.6265 166.282 98.6499 167.33 99.454C168.353 100.258 169.571 100.672 170.96 100.672C172.934 100.672 174.688 99.9413 176.223 98.4794C177.758 97.0174 178.538 95.3117 178.538 93.3381C177.076 92.1929 175.054 91.6081 172.447 91.6081C170.546 91.6081 168.962 92.071 167.695 92.9726C166.404 93.9229 165.77 95.0681 165.77 96.4082Z" fill="#3C4043"/>
<path d="M208.436 79.1327L192.841 115H188.017L193.816 102.451L183.533 79.1327H188.626L196.033 97.0176H196.131L203.343 79.1327H208.436Z" fill="#3C4043"/>
<path d="M121.87 86.3449C121.87 84.8196 121.733 83.3601 121.48 81.9566H101.87V89.9975L113.164 89.9999C112.706 92.6753 111.231 94.956 108.973 96.4765V101.693H115.695C119.621 98.0603 121.87 92.6899 121.87 86.3449Z" fill="#4285F4"/>
<path d="M108.975 96.4767C107.104 97.7389 104.694 98.4772 101.875 98.4772C96.4289 98.4772 91.8091 94.8076 90.1546 89.8613H83.22V95.2413C86.6556 102.059 93.7169 106.737 101.875 106.737C107.513 106.737 112.25 104.883 115.698 101.691L108.975 96.4767Z" fill="#34A853"/>
<path d="M89.5014 85.8697C89.5014 84.4809 89.7329 83.1383 90.1544 81.8761V76.496H83.2198C81.7992 79.3152 81 82.4974 81 85.8697C81 89.2421 81.8016 92.4243 83.2198 95.2435L90.1544 89.8634C89.7329 88.6012 89.5014 87.2586 89.5014 85.8697Z" fill="#FABB05"/>
<path d="M101.875 73.2602C104.952 73.2602 107.708 74.3201 109.884 76.3913L115.841 70.4386C112.223 67.0687 107.506 65 101.875 65C93.7194 65 86.6554 69.6783 83.2198 76.496L90.1544 81.8761C91.8089 76.9297 96.4289 73.2602 101.875 73.2602Z" fill="#E94235"/>
</g>
<defs>
<filter id="filter0_dd_1217_6135" x="0" y="0.000244141" width="290" height="216" filterUnits="userSpaceOnUse" color-interpolation-filters="sRGB">
<feFlood flood-opacity="0" result="BackgroundImageFix"/>
<feColorMatrix in="SourceAlpha" type="matrix" values="0 0 0 0 0 0 0 0 0 0 0 0 0 0 0 0 0 0 127 0" result="hardAlpha"/>
<feOffset dy="2"/>
<feGaussianBlur stdDeviation="10"/>
<feColorMatrix type="matrix" values="0 0 0 0 0.717647 0 0 0 0 0.717647 0 0 0 0 0.717647 0 0 0 0.08 0"/>
<feBlend mode="normal" in2="BackgroundImageFix" result="effect1_dropShadow_1217_6135"/>
<feColorMatrix in="SourceAlpha" type="matrix" values="0 0 0 0 0 0 0 0 0 0 0 0 0 0 0 0 0 0 127 0" result="hardAlpha"/>
<feOffset dy="20"/>
<feGaussianBlur stdDeviation="20"/>
<feColorMatrix type="matrix" values="0 0 0 0 0.717647 0 0 0 0 0.717647 0 0 0 0 0.717647 0 0 0 0.08 0"/>
<feBlend mode="normal" in2="effect1_dropShadow_1217_6135" result="effect2_dropShadow_1217_6135"/>
<feBlend mode="normal" in="SourceGraphic" in2="effect2_dropShadow_1217_6135" result="shape"/>
</filter>
</defs>
</svg>
