<svg width="290" height="216" viewBox="0 0 290 216" fill="none" xmlns="http://www.w3.org/2000/svg">
<g filter="url(#filter0_dd_1217_6112)">
<rect x="41" y="21.0002" width="208" height="134" rx="24" fill="white"/>
<rect x="40.5" y="20.5002" width="209" height="135" rx="24.5" stroke="#D6DCE5"/>
<path fill-rule="evenodd" clip-rule="evenodd" d="M86.5013 68.5044H74.5093C73.6887 68.5044 72.9907 69.1007 72.8628 69.9104L68.0126 100.658C67.9162 101.265 68.3861 101.812 69.0016 101.812H74.7267C75.5473 101.812 76.2452 101.215 76.3732 100.404L77.6814 92.111C77.8076 91.2989 78.5072 90.7033 79.3261 90.7033H83.1224C91.0219 90.7033 95.5807 86.881 96.7719 79.3069C97.3083 75.9933 96.7947 73.3896 95.2423 71.5656C93.5383 69.564 90.5148 68.5044 86.5013 68.5044ZM87.8848 79.7345C87.2292 84.0371 83.9413 84.0371 80.7622 84.0371H78.9526L80.2221 76.0014C80.2975 75.5162 80.7183 75.1584 81.2094 75.1584H82.0387C84.2043 75.1584 86.2473 75.1584 87.303 76.3924C87.9319 77.1292 88.125 78.2229 87.8848 79.7345ZM122.348 79.5965H116.606C116.116 79.5965 115.694 79.9544 115.618 80.4404L115.364 82.0461L114.962 81.4643C113.719 79.6598 110.947 79.057 108.18 79.057C101.834 79.057 96.4141 83.8627 95.3584 90.6043C94.8098 93.9666 95.5896 97.1821 97.4974 99.4247C99.2477 101.486 101.752 102.346 104.731 102.346C109.844 102.346 112.68 99.0579 112.68 99.0579L112.423 100.654C112.327 101.264 112.797 101.811 113.408 101.811H118.582C119.404 101.811 120.098 101.215 120.228 100.403L123.332 80.7503C123.43 80.1458 122.962 79.5965 122.348 79.5965ZM114.343 90.7723C113.789 94.0526 111.185 96.2547 107.865 96.2547C106.197 96.2547 104.864 95.72 104.009 94.7066C103.16 93.7005 102.837 92.2676 103.107 90.6725C103.625 87.4197 106.273 85.1463 109.543 85.1463C111.173 85.1463 112.499 85.6874 113.372 86.7098C114.247 87.7426 114.594 89.1836 114.343 90.7723ZM147.162 79.5957H152.933C153.741 79.5957 154.213 80.502 153.753 81.1649L134.56 108.867C134.249 109.315 133.737 109.582 133.19 109.582H127.426C126.615 109.582 126.141 108.669 126.611 108.004L132.587 99.5691L126.231 80.9174C126.011 80.2691 126.49 79.5957 127.18 79.5957H132.85C133.587 79.5957 134.237 80.0793 134.45 80.7844L137.823 92.0494L145.783 80.3268C146.094 79.8692 146.612 79.5957 147.162 79.5957Z" fill="#253B80"/>
<path fill-rule="evenodd" clip-rule="evenodd" d="M209.733 100.655L214.654 69.3454C214.73 68.8594 215.151 68.5016 215.64 68.5H221.181C221.793 68.5 222.263 69.0485 222.166 69.6554L217.313 100.401C217.186 101.213 216.488 101.809 215.666 101.809H210.718C210.106 101.809 209.636 101.262 209.733 100.655ZM172.041 68.5016H160.047C159.228 68.5016 158.53 69.098 158.402 69.9077L153.552 100.655C153.456 101.262 153.925 101.809 154.538 101.809H160.692C161.264 101.809 161.754 101.392 161.843 100.824L163.219 92.1083C163.346 91.2961 164.045 90.7006 164.864 90.7006H168.658C176.559 90.7006 181.117 86.8782 182.309 79.3041C182.847 75.9905 182.331 73.3868 180.779 71.5629C179.076 69.5613 176.055 68.5016 172.041 68.5016ZM173.425 79.7317C172.771 84.0344 169.483 84.0344 166.302 84.0344H164.494L165.765 75.9986C165.841 75.5134 166.258 75.1556 166.751 75.1556H167.58C169.744 75.1556 171.789 75.1556 172.844 76.3897C173.473 77.1264 173.665 78.2202 173.425 79.7317ZM207.885 79.5938H202.146C201.653 79.5938 201.234 79.9516 201.16 80.4376L200.907 82.0433L200.503 81.4616C199.26 79.6571 196.49 79.0542 193.723 79.0542C187.376 79.0542 181.958 83.86 180.902 90.6016C180.355 93.9639 181.132 97.1793 183.04 99.4219C184.793 101.484 187.294 102.343 190.273 102.343C195.386 102.343 198.221 99.0552 198.221 99.0552L197.966 100.651C197.869 101.261 198.339 101.808 198.955 101.808H204.126C204.944 101.808 205.642 101.212 205.77 100.4L208.876 80.7476C208.971 80.1431 208.501 79.5938 207.885 79.5938ZM199.881 90.7695C199.33 94.0499 196.723 96.2519 193.401 96.2519C191.737 96.2519 190.401 95.7173 189.545 94.7039C188.696 93.6978 188.378 92.2649 188.645 90.6698C189.165 87.417 191.809 85.1435 195.079 85.1435C196.71 85.1435 198.036 85.6847 198.91 86.707C199.788 87.7399 200.135 89.1809 199.881 90.7695Z" fill="#179BD7"/>
</g>
<defs>
<filter id="filter0_dd_1217_6112" x="0" y="0.000244141" width="290" height="216" filterUnits="userSpaceOnUse" color-interpolation-filters="sRGB">
<feFlood flood-opacity="0" result="BackgroundImageFix"/>
<feColorMatrix in="SourceAlpha" type="matrix" values="0 0 0 0 0 0 0 0 0 0 0 0 0 0 0 0 0 0 127 0" result="hardAlpha"/>
<feOffset dy="2"/>
<feGaussianBlur stdDeviation="10"/>
<feColorMatrix type="matrix" values="0 0 0 0 0.717647 0 0 0 0 0.717647 0 0 0 0 0.717647 0 0 0 0.08 0"/>
<feBlend mode="normal" in2="BackgroundImageFix" result="effect1_dropShadow_1217_6112"/>
<feColorMatrix in="SourceAlpha" type="matrix" values="0 0 0 0 0 0 0 0 0 0 0 0 0 0 0 0 0 0 127 0" result="hardAlpha"/>
<feOffset dy="20"/>
<feGaussianBlur stdDeviation="20"/>
<feColorMatrix type="matrix" values="0 0 0 0 0.717647 0 0 0 0 0.717647 0 0 0 0 0.717647 0 0 0 0.08 0"/>
<feBlend mode="normal" in2="effect1_dropShadow_1217_6112" result="effect2_dropShadow_1217_6112"/>
<feBlend mode="normal" in="SourceGraphic" in2="effect2_dropShadow_1217_6112" result="shape"/>
</filter>
</defs>
</svg>
