<svg width="290" height="216" viewBox="0 0 290 216" fill="none" xmlns="http://www.w3.org/2000/svg">
<g filter="url(#filter0_dd_1226_3006)">
<rect x="41" y="21.0002" width="208" height="134" rx="24" fill="white"/>
<rect x="40.5" y="20.5002" width="209" height="135" rx="24.5" stroke="#D6DCE5"/>
<path d="M78.5589 106.373H75.3694V98.1231H78.5589C81.0428 98.1231 82.7297 99.9637 82.7297 102.232C82.7297 104.533 81.0428 106.373 78.5589 106.373ZM78.8654 94.2596H71.1986V116.646H75.3694V110.237H78.8346C83.4959 110.237 86.9308 106.68 86.9308 102.232C86.9308 97.8171 83.4959 94.2596 78.8654 94.2596Z" fill="#000008"/>
<path d="M97.5439 113.211C94.4774 113.211 92.1169 110.758 92.1169 107.63C92.1169 104.533 94.4774 102.111 97.5439 102.111C100.61 102.111 102.911 104.594 102.911 107.63C102.911 110.728 100.61 113.211 97.5439 113.211ZM102.697 100.853C101.408 99.3201 99.2919 98.3378 96.9314 98.3378C92.3922 98.3378 88.0379 101.742 88.0379 107.692C88.0379 113.549 92.5454 117.014 96.8695 117.014C99.2309 117.014 101.378 115.972 102.697 114.316V116.646H106.836V98.7062H102.697V100.853Z" fill="#000008"/>
<path d="M117.91 110.789L112.912 98.7067H108.495L115.856 115.757L112.083 124.926H116.285L126.988 98.7067H122.633L117.91 110.789Z" fill="#000008"/>
<path d="M192.436 76.2438H192.321L187.508 59.8069H179.736V80.5306H184.886L184.597 63.5264H184.712L189.881 80.5306H197.338V59.8069H192.152L192.436 76.2438Z" fill="#000008"/>
<path d="M98.2218 61.7467L98.3387 61.7449L101.13 80.7458H106.756L102.896 59.8069H93.5801L89.6985 80.7458H95.3584L98.2218 61.7467Z" fill="#000008"/>
<path d="M125.221 59.8069L122.638 75.8181H122.519L119.94 59.8069H111.399L110.938 80.7458H116.179L116.31 61.9223H116.425L119.923 80.7458H125.236L128.735 61.9242L128.851 61.9223L128.982 80.7458H134.22L133.758 59.8069H125.221Z" fill="#000008"/>
<path d="M78.7715 81.5653C82.5604 81.5653 85.6754 80.2733 86.1733 76.7773C86.4281 74.9702 86.2408 73.7863 86.1509 73.3457C85.2669 68.9606 77.3226 67.6528 76.7297 65.2006C76.63 64.7753 76.6542 64.3343 76.7073 64.1C76.8554 63.4279 77.3105 62.6939 78.6197 62.6939C79.8465 62.6939 80.5652 63.4503 80.5652 64.5914V65.8885H85.7909V64.4134C85.7909 59.8528 81.6937 59.1397 78.7301 59.1397C75.0087 59.1397 71.9641 60.373 71.4094 63.7879C71.2575 64.7218 71.2371 65.5578 71.4574 66.6123C72.3656 70.8921 79.8069 72.1286 80.8856 74.8393C81.0905 75.3456 81.0253 75.9949 80.9271 76.388C80.7566 77.0857 80.2824 77.7973 78.8871 77.7973C77.5778 77.7973 76.7832 77.0391 76.7832 75.8984L76.7781 73.8692H71.163L71.1611 75.483C71.1611 80.1545 74.8364 81.5653 78.7715 81.5653Z" fill="#000008"/>
<path d="M144.85 65.2541C144.749 64.8359 144.774 64.3999 144.824 64.167C144.973 63.5019 145.424 62.7749 146.718 62.7749C147.936 62.7749 148.646 63.521 148.646 64.6533V65.935H153.82V64.4772C153.82 59.9617 149.763 59.2566 146.828 59.2566C143.147 59.2566 140.131 60.4745 139.583 63.8568C139.432 64.7818 139.411 65.6095 139.631 66.6518C140.528 70.8916 147.897 72.1151 148.965 74.7993C149.165 75.3023 149.103 75.9417 149.004 76.333C148.836 77.0223 148.367 77.7247 146.985 77.7247C145.688 77.7247 144.9 76.9771 144.9 75.8453L144.897 73.8384H139.337L139.335 75.4369C139.335 80.0613 142.976 81.4567 146.872 81.4567C150.622 81.4567 153.707 80.1787 154.199 76.7168C154.45 74.9283 154.266 73.7569 154.176 73.3177C153.3 68.9755 145.435 67.6821 144.85 65.2541Z" fill="#000008"/>
<path d="M173.901 59.8032H168.601V75.2941C168.603 75.5629 168.596 75.8679 168.552 76.0938C168.448 76.6089 168 77.6112 166.544 77.6112C165.087 77.6112 164.636 76.6089 164.535 76.0938C164.49 75.8679 164.479 75.5629 164.485 75.2941V59.8032H159.189V74.8167C159.178 75.2028 159.218 75.9904 159.237 76.1949C159.604 80.103 162.693 81.3694 166.544 81.3694C170.393 81.3694 173.483 80.103 173.848 76.1949C173.869 75.9904 173.908 75.2028 173.901 74.8167V59.8032Z" fill="#000008"/>
<path d="M210.263 68.9859V72.0389H212.409V75.0798C212.413 75.3448 212.403 75.6378 212.36 75.8739C212.265 76.4342 211.736 77.3941 210.219 77.3941C208.705 77.3941 208.177 76.4342 208.078 75.8744C208.038 75.6382 208.028 75.3453 208.029 75.0798V65.5072C208.029 65.1662 208.054 64.7918 208.114 64.516C208.23 63.9995 208.678 62.9967 210.2 62.9967C211.802 62.9967 212.199 64.0545 212.294 64.516C212.356 64.8178 212.361 65.3157 212.36 65.3139V66.4876H217.641V65.7899C217.637 65.7899 217.659 65.0782 217.592 64.4112C217.206 60.4845 213.955 59.2372 210.242 59.2372C206.527 59.2372 203.359 60.4966 202.892 64.4112C202.849 64.761 202.804 65.4177 202.804 65.7899L202.802 74.5991C202.804 74.9936 202.814 75.2815 202.875 75.9778C203.225 79.7923 206.527 81.1532 210.24 81.1532C213.951 81.1532 217.258 79.7918 217.604 75.9778C217.668 75.2815 217.677 74.9936 217.68 74.5991V68.9859H210.263Z" fill="#000008"/>
</g>
<defs>
<filter id="filter0_dd_1226_3006" x="0" y="0.000244141" width="290" height="216" filterUnits="userSpaceOnUse" color-interpolation-filters="sRGB">
<feFlood flood-opacity="0" result="BackgroundImageFix"/>
<feColorMatrix in="SourceAlpha" type="matrix" values="0 0 0 0 0 0 0 0 0 0 0 0 0 0 0 0 0 0 127 0" result="hardAlpha"/>
<feOffset dy="2"/>
<feGaussianBlur stdDeviation="10"/>
<feColorMatrix type="matrix" values="0 0 0 0 0.717647 0 0 0 0 0.717647 0 0 0 0 0.717647 0 0 0 0.08 0"/>
<feBlend mode="normal" in2="BackgroundImageFix" result="effect1_dropShadow_1226_3006"/>
<feColorMatrix in="SourceAlpha" type="matrix" values="0 0 0 0 0 0 0 0 0 0 0 0 0 0 0 0 0 0 127 0" result="hardAlpha"/>
<feOffset dy="20"/>
<feGaussianBlur stdDeviation="20"/>
<feColorMatrix type="matrix" values="0 0 0 0 0.717647 0 0 0 0 0.717647 0 0 0 0 0.717647 0 0 0 0.08 0"/>
<feBlend mode="normal" in2="effect1_dropShadow_1226_3006" result="effect2_dropShadow_1226_3006"/>
<feBlend mode="normal" in="SourceGraphic" in2="effect2_dropShadow_1226_3006" result="shape"/>
</filter>
</defs>
</svg>
