<svg width="1440" height="1024" viewBox="0 0 1440 1024" fill="none" xmlns="http://www.w3.org/2000/svg">
<g clip-path="url(#clip0_196_1992)">
<rect width="1440" height="1024" fill="white"/>
<rect x="737" width="705" height="1024" fill="#D9D9D9"/>
<path fill-rule="evenodd" clip-rule="evenodd" d="M223.576 608.288C309.549 605.923 397.705 617.326 463.154 673.123C533.517 733.111 597.737 821.831 580.642 912.701C564.411 998.98 456.308 1022.16 387.285 1076.41C332.473 1119.49 292.003 1180.01 223.576 1193.35C139.93 1209.67 40.1909 1216.6 -19.4672 1155.74C-78.9349 1095.08 -54.4868 997.6 -51.5425 912.701C-48.758 832.407 -57.0448 745.556 -3.17507 685.95C52.5139 624.331 140.552 610.571 223.576 608.288Z" fill="#C4C4C4" fill-opacity="0.4"/>
<path opacity="0.7" fill-rule="evenodd" clip-rule="evenodd" d="M1384.34 665.525C1465.14 679.563 1502.95 765.469 1558.31 825.977C1609.38 881.804 1687.77 924.318 1690.27 999.94C1692.8 1076.57 1629.02 1136.62 1570.19 1185.78C1517.4 1229.89 1452.22 1244.4 1384.34 1255.55C1295.8 1270.1 1195.42 1315 1125.42 1258.86C1053.6 1201.24 1063.53 1091.99 1065.68 999.94C1067.76 910.814 1075.72 817.356 1137.22 752.816C1199.87 687.067 1294.86 649.979 1384.34 665.525Z" fill="white"/>
<path fill-rule="evenodd" clip-rule="evenodd" d="M43.4557 -67.1995C118.147 -81.7882 197.202 -52.8417 253.387 -6.62151C311.657 41.3143 358.496 110.896 344.506 180.458C331.487 245.191 241.789 264.197 189.575 310.672C137.426 357.089 116.751 441.486 43.4557 448.416C-31.2994 455.485 -95.2649 397.092 -137.352 341.584C-172.697 294.968 -168.898 236.118 -159.713 180.458C-152.101 134.327 -121.875 98.2837 -90.9953 60.6426C-50.7861 11.6287 -23.0958 -54.2008 43.4557 -67.1995Z" fill="#C4C4C4" fill-opacity="0.4"/>
<path fill-rule="evenodd" clip-rule="evenodd" d="M1346.83 -284.322C1432.77 -292.623 1509.4 -223.286 1557.84 -151.808C1599.07 -90.9553 1583.55 -14.1995 1579.61 59.2033C1576 126.469 1579.01 196.594 1536.35 248.724C1489.83 305.561 1420.27 342.621 1346.83 343.63C1272.53 344.65 1206.75 304.272 1152.03 254.003C1094.33 200.995 1032.78 137.429 1037.23 59.2033C1041.57 -17.1058 1121.82 -57.861 1172.99 -114.638C1229.34 -177.169 1263.04 -276.23 1346.83 -284.322Z" fill="white" fill-opacity="0.7"/>
</g>
<defs>
<clipPath id="clip0_196_1992">
<rect width="1440" height="1024" fill="white"/>
</clipPath>
</defs>
</svg>
